PathFileType	4	(X/Y/Z)	C:/Users/beibeiliu/ov580/test_trc/User1\sequence.21_training_dense_left.trc
DataRate	CameraRate	NumFrames	NumMarkers	Units	OrigDataRate	OrigDataStartFrame	OrigNumFrames
120	120	24	19	mm	120	36	280
Frame#	Time	ThumbCMC			ThumbMCP			ThumbIP			ThumbTip			IndexMCP			IndexPIP			IndexTip			MiddleMCP			MiddlePIP			MiddleTip			RingMCP			RingPIP			RingTip			PinkyMCP			PinkyPIP			PinkyTip			BackHand1			BackHand2			BackHand3	
		X0	Y0	Z0	X1	Y1	Z1	X2	Y2	Z2	X3	Y3	Z3	X4	Y4	Z4	X5	Y5	Z5	X6	Y6	Z6	X7	Y7	Z7	X8	Y8	Z8	X9	Y9	Z9	X10	Y10	Z10	X11	Y11	Z11	X12	Y12	Z12	X13	Y13	Z13	X14	Y14	Z14	X15	Y15	Z15	X16	Y16	Z16	X17	Y17	Z17	X18	Y18	Z18	
35	0.291667	-143.42	34.1461	45.2918	-120.971	15.507	19.0817	-129.155	1.44766	-3.72103	-153.42	-11.8777	-15.447	-140.563	47.3754	-40.1218	-134.728	52.1039	-68.3144	-137.301	56.0903	-89.7125	-168.214	54.6774	-56.2151	-159.877	57.4666	-81.0896	-155.515	63.7657	-108.51	-193.408	51.0206	-50.6979	-188.363	57.4601	-76.9091	-186.587	60.4257	-99.3737	-223.699	38.9469	-37.7095	-229.117	41.1373	-55.8501	-236.009	49.6506	-71.5084	-198.747	57.2804	-1.57753	-205.882	64.5413	32.405	-170.043	57.9975	21.5183	
36	0.3	-142.958	34.3389	44.7193	-122.129	16.3544	18.9774	-129.114	1.99906	-4.2867	-153.187	-15.1872	-20.4065	-144.454	46.8717	-41.4712	-140.374	51.5509	-64.3562	-140.197	56.5631	-90.9626	-166.657	54.1671	-53.0214	-159.165	57.2404	-77.3734	-159.884	63.2871	-106.923	-193.219	50.5153	-48.3878	-189.192	55.7657	-72.6478	-185.274	62.5453	-102.282	-221.108	38.2044	-38.0337	-226.516	40.6435	-54.9988	-236.683	51.9063	-73.6146	-201.57	55.8356	1.77363	-204.86	64.0646	31.77	-170.088	57.9553	21.0958	
37	0.308333	-144.027	34.0487	41.6069	-122.049	16.4385	16.9729	-128.456	1.72671	-4.79683	-152.317	-14.6846	-21.361	-143.267	48.2173	-45.5077	-138.735	53.0245	-67.9394	-136.059	57.4339	-92.6286	-168.559	53.8651	-52.4254	-161.714	57.9284	-79.3637	-160.624	63.7195	-107.576	-194.148	51.5275	-49.4136	-186.56	58.0883	-76.7392	-188.972	65.1258	-102.964	-222.004	39.66	-32.35	-228.837	41.8711	-52.1309	-230.502	53.7159	-70.5944	-196.57	56.2881	4.26015	-207.533	64.7376	32.5888	-165.184	58.8996	19.9139	
38	0.316667	-146.063	34.5342	41.5963	-119.699	14.3474	19.1291	-127.148	0.177906	-7.61207	-151.265	-12.9344	-17.9913	-143.034	47.1711	-40.7292	-135.944	52.2457	-67.493	-139.939	58.2198	-92.6903	-163.62	54.0338	-52.0003	-161.41	58.106	-80.2688	-160.215	65.5452	-110.718	-189.682	51.5041	-51.0098	-187.54	57.5834	-75.1945	-187.059	63.2403	-99.2612	-220.232	39.6655	-36.2974	-228.846	42.851	-52.1081	-235.105	56.7196	-73.803	-199.901	55.4417	2.87596	-202.07	63.9651	32.9464	-164.957	60.1192	21.0539	
39	0.325	-147.31	34.6954	41.6599	-124.094	16.5948	21.1497	-129.561	1.32185	-9.27748	-155.931	-12.4266	-22.9706	-144.482	48.6753	-45.5486	-141.114	52.7228	-64.9158	-141.718	59.7084	-93.5645	-169.181	55.1606	-56.4033	-163.774	58.1629	-82.3377	-163.902	63.9579	-106.774	-189.724	50.7061	-50.3483	-188.838	56.3088	-76.5419	-189.127	64.2089	-101.233	-221.592	40.4051	-37.7913	-227.479	43.5944	-54.4833	-232.415	55.0592	-75.5893	-197.205	57.7122	2.93636	-205.676	63.446	32.8688	-165.699	59.3282	23.4801	
40	0.333333	-141.146	33.5114	42.0602	-122.738	16.771	17.6436	-127.594	2.89745	-10.0781	-151.376	-12.7677	-25.3807	-146.783	49.7038	-45.4228	-142.945	53.0348	-67.5164	-147.995	59.609	-91.5722	-169.678	53.999	-55.6799	-165.871	57.287	-79.9462	-161.365	64.2742	-107.903	-192.722	50.4221	-51.1547	-188.442	56.1169	-74.6297	-185.307	62.7557	-101.274	-217.225	40.2572	-34.684	-225.027	43.1486	-53.2819	-224.459	56.4071	-73.8374	-200.901	56.5166	-0.386907	-204.831	62.9958	33.9447	-168.394	60.2865	22.2918	
41	0.341667	-141.435	34.7207	43.1299	-123.136	16.7231	21.0996	-127.39	2.61881	-12.171	-151.506	-8.85593	-25.1309	-144.595	48.609	-42.2913	-143.938	52.7805	-64.7109	-149.907	58.6334	-90.0937	-169.768	54.9867	-56.5985	-165.514	58.3252	-80.5014	-168.073	65.6039	-108.164	-193.081	51.1548	-50.8132	-185.711	55.3349	-74.5673	-183.003	61.4942	-99.2224	-218.552	41.8892	-36.6724	-219.312	45.4344	-55.8017	-220.689	58.9324	-77.5187	-198.401	56.5869	1.68053	-201.789	62.4897	34.143	-166.01	59.5936	24.4526	
42	0.35	-143.718	33.1482	40.4617	-119.628	17.097	18.9292	-131.477	5.80313	-10.6129	-149.78	-7.28671	-23.1718	-141.984	49.1733	-41.4731	-143.433	53.153	-68.5668	-147.301	60.4284	-94.277	-168.527	54.4958	-57.7837	-167.408	58.3662	-81.4545	-163.807	66.5219	-110.632	-191.687	50.2751	-50.9853	-189.501	56.3149	-77.3663	-183.526	62.317	-99.3476	-215.234	42.2817	-36.92	-213.069	47.2998	-56.3038	-209.685	59.8961	-75.6062	-197.799	56.6905	4.30498	-203.735	61.8912	35.1113	-167.221	58.9333	24.403	
43	0.358333	-142.84	34.142	42.7302	-123.024	19.0501	18.8017	-127.288	6.4016	-7.18534	-151.129	-8.06022	-25.4096	-146.829	49.6641	-43.7461	-141.883	53.6003	-64.9907	-147.821	59.4677	-89.5658	-170.108	54.1678	-54.0449	-163.524	59.1369	-82.6093	-165.883	64.6011	-108.307	-188.837	51.0885	-54.0519	-186.949	55.9643	-74.1933	-185.96	63.1533	-99.7622	-209.143	43.2878	-38.4669	-209.772	47.3796	-55.7184	-204.976	58.9252	-72.9313	-195.649	57.3201	1.23525	-206.797	63.4279	34.0205	-165.627	59.4327	25.1637	
44	0.366667	-146.865	34.1463	44.0215	-119.503	18.2604	19.4176	-125.698	6.44403	-12.542	-148.976	-5.06308	-23.4857	-142.884	48.5794	-41.29	-142.974	53.1939	-64.4308	-148.081	59.2386	-92.4947	-165.675	53.7791	-52.3132	-165.169	56.6926	-78.4861	-163.308	64.4709	-108.195	-188.941	51.0606	-54.6605	-185.976	55.6012	-73.7434	-184.721	62.1341	-100.14	-209.479	41.6294	-34.4735	-208.292	46.669	-58.427	-199.64	58.24	-77.8977	-196.314	56.5316	3.2627	-200.908	62.9887	34.0444	-163.183	60.6537	22.0039	
45	0.375	-143.885	33.5638	43.1698	-120.574	18.9376	17.9361	-126.999	7.20972	-6.46297	-143.76	-6.89155	-22.8648	-141.342	48.5397	-41.5709	-140.11	52.3579	-67.1463	-144.756	57.3279	-92.333	-164.517	53.6774	-55.4012	-165.422	57.0787	-82.7587	-163.252	63.7422	-106.846	-184.217	50.766	-50.7821	-183.364	54.2267	-73.0933	-181.743	61.8402	-101.667	-208.384	42.1582	-38.7404	-208.7	45.0763	-56.5505	-200.933	55.91	-74.3973	-199.259	56.5354	3.38542	-201.086	64.4337	36.2713	-164.761	59.4018	24.4608	
46	0.383333	-141.526	35.0462	42.1844	-118.015	18.6612	20.019	-125.175	7.76477	-6.94191	-148.257	-4.96687	-22.3156	-140.454	48.521	-39.7146	-141.375	52.4883	-63.4296	-147.481	56.6224	-91.3082	-162.003	54.0978	-54.4465	-160.783	57.7366	-82.1249	-162.611	63.0782	-106.518	-189.478	50.8019	-50.2328	-181.609	54.9961	-73.5114	-183.426	60.1262	-98.247	-207.919	42.3056	-38.8648	-205.272	44.4525	-52.4429	-200.346	52.8847	-74.5304	-194.156	56.6526	2.43276	-202.55	62.9577	35.9849	-163.208	58.8239	24.3409	
47	0.391667	-141.023	33.6415	44.2903	-122.539	19.0993	20.3437	-123.194	6.68613	-10.369	-143.402	-8.47909	-25.6836	-139.919	49.4795	-42.433	-138.548	51.6163	-63.0296	-142.074	57.6454	-90.7861	-163.738	53.9333	-51.3093	-163.481	57.4774	-79.294	-160.402	64.1206	-106.735	-186.695	51.1983	-53.3754	-181.11	54.965	-73.6487	-181.367	61.4941	-99.1541	-206.291	41.4362	-35.1918	-205.639	44.6922	-55.9593	-198.848	54.3563	-77.8569	-195.828	55.3661	5.42724	-199.01	64.7831	33.3443	-162.597	60.5129	24.4829	
48	0.4	-143.151	33.9128	46.1691	-121.884	18.7958	21.3878	-121.386	6.68188	-9.5815	-145.385	-5.57364	-23.9569	-139.999	49.4799	-40.8419	-141.149	53.0329	-65.1055	-144.143	57.786	-90.4662	-165.385	53.6801	-52.2539	-159.194	57.3569	-80.5048	-158.201	64.0367	-109.109	-184.043	49.5969	-49.0275	-184.766	55.9579	-76.4678	-176.791	60.8281	-101.686	-208.113	41.9837	-39.1012	-203.911	45.541	-58.589	-198.995	54.2996	-75.1469	-197.259	56.8182	4.53502	-201.134	63.169	31.7373	-167.272	60.7317	24.3963	
49	0.408333	-138.533	34.2683	42.387	-121.327	19.4134	20.4893	-123.18	7.4128	-8.07555	-143.763	-7.22371	-26.7097	-140.196	49.7126	-44.016	-138.898	52.8964	-68.5013	-141.69	57.269	-91.2867	-163.434	54.7477	-54.548	-161.822	56.5774	-80.4679	-163.873	64.6932	-110.75	-185.924	51.3594	-51.952	-181.462	55.696	-77.3321	-181.181	61.1087	-100.018	-205.187	40.8656	-32.8387	-202.001	44.2615	-55.0816	-201.042	56.9905	-77.2324	-194.527	58.3717	1.24359	-198.38	62.8169	33.6926	-164.136	60.5906	22.7945	
50	0.416667	-141.035	33.2127	46.3777	-119.735	18.6775	19.064	-123.254	6.78764	-7.3465	-141.452	-9.22475	-28.21	-137.856	47.6787	-39.6022	-141.948	53.3692	-67.8857	-141.136	57.1515	-89.8799	-163.799	53.8127	-54.1689	-161.786	57.0148	-80.9932	-163.528	62.819	-107.188	-184.549	51.2957	-49.8113	-183.647	55.9183	-78.2077	-179.775	61.3353	-102.656	-206.19	42.0544	-38.157	-206.618	45.779	-55.1528	-198.58	56.0563	-74.08	-194.472	58.3912	3.66416	-200.826	65.5695	32.2087	-164.043	61.355	22.3169	
51	0.425	-140.695	32.1343	46.6828	-116.79	17.0404	20.6245	-124.173	6.75313	-7.19631	-145.088	-8.03868	-28.5227	-140.031	47.9981	-42.0147	-140.066	51.319	-67.2428	-143.62	57.2625	-93.1813	-163.208	53.1305	-53.5517	-159.049	55.5096	-77.4358	-163.374	63.9071	-111.116	-182.359	50.5703	-50.5307	-179.994	55.0424	-76.8253	-182.253	59.0852	-99.2717	-209.349	42.0281	-35.3408	-204.376	45.7046	-57.9668	-196.517	53.6327	-77.0121	-192.657	56.9187	2.65649	-202.571	63.5396	33.4927	-161.441	61.0313	22.5292	
52	0.433333	-144.083	34.5523	42.7316	-120.741	19.7725	21.9618	-124.185	8.51973	-13.5857	-146.007	-5.65616	-27.2223	-143.268	48.8628	-40.926	-142.879	52.1226	-66.1467	-146.071	56.7599	-93.2627	-165.549	55.1788	-57.5281	-160.032	56.6628	-78.3089	-158.897	62.0627	-108.912	-188.39	50.9021	-49.6141	-181.209	55.2268	-75.7885	-181.56	60.5847	-100.716	-209.231	42.4765	-36.6786	-204.704	45.9074	-58.7207	-200.62	57.5475	-80.3019	-193.208	56.7497	1.61228	-203.918	66.4352	35.6781	-161.71	61.6732	20.5749	
53	0.441667	-142.441	33.9236	45.4288	-120.073	20.6557	16.5447	-124.357	8.44427	-13.1302	-145.461	-4.58465	-25.8277	-142.828	49.2779	-40.4161	-141.688	52.6484	-67.2625	-143.451	56.4674	-89.9018	-161.507	54.7954	-56.8733	-160.767	57.7391	-82.1054	-161.936	62.8568	-109.248	-182.876	51.5918	-51.2048	-183.167	54.8711	-74.8101	-179.408	59.759	-96.9823	-206.269	43.6717	-35.1957	-202.761	46.5813	-56.8902	-198.69	56.8075	-76.895	-197.179	60.1768	4.91895	-201.578	66.5021	34.1445	-160.713	61.8212	20.6767	
54	0.45	-141.312	35.1393	40.6188	-121.558	20.4735	18.6225	-125.034	8.59393	-11.9079	-145.776	-4.5583	-25.6796	-143.195	50.1157	-41.8547	-141.886	55.1225	-70.1916	-144.3	58.1799	-90.7003	-166.839	55.7629	-55.6724	-160.726	57.5126	-83.2273	-160.308	64.0649	-110.419	-188.204	52.0236	-50.8741	-185.389	56.7999	-78.268	-179.65	59.9716	-99.2495	-207.079	44.5354	-38.3724	-204.437	47.5374	-57.3014	-197.902	55.067	-78.9608	-196.428	60.2843	2.37264	-203.922	64.4917	34.9032	-162.097	60.0825	21.8267	
55	0.458333	-143.963	34.8707	40.8389	-120.899	20.0479	15.9026	-128.118	9.25029	-10.1675	-146.39	-6.74867	-29.6362	-144.179	50.9866	-40.2788	-143.198	54.6518	-68.252	-145.22	60.046	-92.514	-163.729	56.8429	-55.4234	-159.198	59.5802	-82.2687	-162.854	64.272	-107.118	-184.644	54.0902	-48.5945	-183.333	59.3892	-79.7946	-179.833	61.9465	-100.204	-208.741	46.7758	-37.3077	-203.624	48.9537	-54.9292	-200.494	57.9342	-82.1439	-193.238	59.8888	3.4858	-198.912	66.5872	33.0793	-163.251	63.6369	23.9713	
56	0.466667	-141.705	36.4719	39.5313	-119.784	20.5486	16.0011	-124.818	8.92887	-12.7758	-144.101	-6.13364	-29.4148	-141.208	53.1516	-42.758	-139.834	55.8753	-67.6351	-141.78	60.4995	-90.9223	-163.355	59.3082	-57.4128	-161.452	61.327	-83.921	-163.228	67.6018	-111.379	-185.259	55.7283	-49.0592	-183.026	60.8114	-79.8792	-176.868	64.4198	-103.047	-206.787	47.257	-34.1495	-203.761	50.5008	-54.1659	-200.335	60.4024	-79.6063	-195.928	63.0314	-1.54438	-202.321	69.8814	34.7928	-160.855	62.1569	20.2883	
57	0.475	-144.666	35.9197	42.6392	-122.236	21.9955	18.3836	-130.051	11.5345	-12.0093	-146.383	-1.43773	-27.3562	-140.533	53.9485	-45.0751	-142.456	58.1865	-68.9997	-142.657	63.0633	-93.9145	-164.498	61.2099	-56.9097	-161.87	62.4555	-79.2746	-161.328	69.858	-112.134	-183.524	58.0373	-54.0121	-179.895	62.9146	-77.7076	-177.521	65.1723	-99.2338	-207.99	49.2098	-36.4608	-206.242	54.047	-58.7335	-201.021	64.4871	-77.0296	-196.455	61.8184	1.49195	-197.614	69.5601	33.8298	-163.183	64.2779	22.3689	
58	0.483333	-141.296	36.6786	43.9387	-122.726	22.7771	17.3319	-126.635	13.0041	-9.92007	-147.292	0.574329	-29.8032	-141.471	55.9096	-41.6705	-141.867	60.2288	-66.5697	-143.357	67.7586	-95.3498	-164.957	62.6477	-54.1034	-160.236	65.9572	-84.3111	-158.947	73.3756	-111.499	-185.369	60.1903	-50.5538	-181.443	64.8629	-78.1078	-177.369	68.1892	-98.4618	-208.493	51.7535	-37.553	-203.825	55.253	-56.2515	-198.713	66.6298	-79.2329	-191.594	63.7215	-0.00555098	-200.726	69.5812	34.7781	-163.771	65.7727	20.9422	
